<?xml version="1.0" encoding="UTF-8"?>
<svg width="20px" height="20px" viewBox="0 0 20 20" version="1.1" xmlns="http://www.w3.org/2000/svg" xmlns:xlink="http://www.w3.org/1999/xlink">
    <!-- Generator: Sketch 62 (91390) - https://sketch.com -->
    <title>calendar</title>
    <desc>Created with Sketch.</desc>
    <g id="Page-1" stroke="none" stroke-width="1" fill="none" fill-rule="evenodd">
        <g id="Event-Details" transform="translate(-451.000000, -270.000000)" fill="#808080" fill-rule="nonzero">
            <g id="Meta-Row" transform="translate(0.000000, 220.000000)">
                <g id="Date" transform="translate(451.000000, 49.000000)">
                    <g id="calendar" transform="translate(0.000000, 1.000000)">
                        <path d="M16.6666667,16.6666667 L13.3333333,16.6666667 L13.3333333,13.3333333 L16.6666667,13.3333333 L16.6666667,16.6666667 Z M11.6666667,8.33333333 L8.33333333,8.33333333 L8.33333333,11.6666667 L11.6666667,11.6666667 L11.6666667,8.33333333 Z M16.6666667,8.33333333 L13.3333333,8.33333333 L13.3333333,11.6666667 L16.6666667,11.6666667 L16.6666667,8.33333333 Z M6.66666667,13.3333333 L3.33333333,13.3333333 L3.33333333,16.6666667 L6.66666667,16.6666667 L6.66666667,13.3333333 Z M11.6666667,13.3333333 L8.33333333,13.3333333 L8.33333333,16.6666667 L11.6666667,16.6666667 L11.6666667,13.3333333 Z M6.66666667,8.33333333 L3.33333333,8.33333333 L3.33333333,11.6666667 L6.66666667,11.6666667 L6.66666667,8.33333333 Z M20,1.66666667 L20,20 L0,20 L0,1.66666667 L2.5,1.66666667 L2.5,2.5 C2.5,3.41916667 3.2475,4.16666667 4.16666667,4.16666667 C5.08583333,4.16666667 5.83333333,3.41916667 5.83333333,2.5 L5.83333333,1.66666667 L14.1666667,1.66666667 L14.1666667,2.5 C14.1666667,3.41916667 14.9141667,4.16666667 15.8333333,4.16666667 C16.7525,4.16666667 17.5,3.41916667 17.5,2.5 L17.5,1.66666667 L20,1.66666667 Z M18.3333333,6.66666667 L1.66666667,6.66666667 L1.66666667,18.3333333 L18.3333333,18.3333333 L18.3333333,6.66666667 Z M16.6666667,0.833333333 C16.6666667,0.373333333 16.2941667,0 15.8333333,0 C15.3725,0 15,0.373333333 15,0.833333333 L15,2.5 C15,2.96 15.3725,3.33333333 15.8333333,3.33333333 C16.2941667,3.33333333 16.6666667,2.96 16.6666667,2.5 L16.6666667,0.833333333 Z M5,2.5 C5,2.96 4.6275,3.33333333 4.16666667,3.33333333 C3.70583333,3.33333333 3.33333333,2.96 3.33333333,2.5 L3.33333333,0.833333333 C3.33333333,0.373333333 3.70583333,0 4.16666667,0 C4.6275,0 5,0.373333333 5,0.833333333 L5,2.5 Z" id="Shape"></path>
                    </g>
                </g>
            </g>
        </g>
    </g>
</svg>