<?xml version="1.0" encoding="UTF-8"?>
<svg width="200px" height="230px" viewBox="0 0 200 230" version="1.1" xmlns="http://www.w3.org/2000/svg" xmlns:xlink="http://www.w3.org/1999/xlink">
    <!-- Generator: Sketch 62 (91390) - https://sketch.com -->
    <title>ce-logo</title>
    <desc>Created with Sketch.</desc>
    <g id="Page-1" stroke="none" stroke-width="1" fill="none" fill-rule="evenodd">
        <g id="Home-Dark" transform="translate(-199.000000, -140.000000)">
            <g id="Hero-Section">
                <g id="Logo" transform="translate(199.000000, 140.000000)">
                    <g transform="translate(-15.000000, 0.000000)" id="Group">
                        <g>
                            <path d="M214.092921,172.211325 L115,229.42265 L15.9070786,172.211325 L15.9070786,57.7886751 L115,0.577350269 L214.092921,57.7886751 L214.092921,172.211325 Z" id="Polygon" stroke="#02FFFF" fill="#242424"></path>
                            <path d="M205.432667,167.211325 L115,219.42265 L24.5673326,167.211325 L24.5673326,62.7886751 L115,10.5773503 L205.432667,62.7886751 L205.432667,167.211325 Z" id="Polygon-Copy" stroke="#FF9900"></path>
                            <path d="M51.4426983,110.999041 C52.8224752,110.996165 53.5519091,110.986818 53.631,110.971 C53.9596667,110.913 54.2303333,110.7535 54.443,110.4925 C54.6556667,110.2315 54.762,109.936667 54.762,109.608 C54.762,108.97 54.4816667,108.544667 53.921,108.332 C53.7856667,108.274 52.6353333,108.235333 50.47,108.216 C48.382,108.216 47.2993333,108.206333 47.222,108.187 C47.0286667,108.109667 46.8933333,108.042 46.816,107.984 C46.7966667,107.984 46.729,107.930833 46.613,107.8245 C46.497,107.718167 46.3278333,107.568333 46.1055,107.375 C45.8831667,107.181667 45.6753333,107.007667 45.482,106.853 C44.7666667,106.253667 44.322,105.867 44.148,105.693 C44.0126667,105.461 43.9353333,105.287 43.916,105.171 C43.8990833,105.12025 43.8895677,104.603234 43.8874531,103.619953 L43.887,101.285 L43.916,101.169 C43.974,100.975667 44.0513333,100.821 44.148,100.705 C44.1866667,100.647 44.6313333,100.260333 45.482,99.545 C46.3133333,98.8296667 46.758,98.4526667 46.816,98.414 C46.932,98.3366667 47.0673333,98.269 47.222,98.211 L47.222,98.211 L47.338,98.182 L50.47,98.153 C52.5966667,98.153 53.747,98.1143333 53.921,98.037 C54.4816667,97.8243333 54.762,97.399 54.762,96.761 C54.762,96.4323333 54.6556667,96.1423333 54.443,95.891 C54.2303333,95.6396667 53.9596667,95.4753333 53.631,95.398 C53.5343333,95.3786667 52.4565,95.369 50.3975,95.369 C48.5256818,95.369 47.4487672,95.376989 47.1667562,95.3929669 L47.106,95.398 C46.3326667,95.4946667 45.6656667,95.7653333 45.105,96.21 C44.9503333,96.326 44.4525,96.7465 43.6115,97.4715 C42.7705,98.1965 42.3113333,98.5976667 42.234,98.675 C41.6153333,99.313 41.248,100.096 41.132,101.024 C41.1150833,101.17625 41.1055677,101.772563 41.1034531,102.812938 L41.1034531,103.557182 C41.1083274,104.789016 41.1468222,105.549289 41.219,105.838 C41.4123333,106.611333 41.7796667,107.259 42.321,107.781 C42.4176667,107.877667 42.8816667,108.278833 43.713,108.9845 C44.5443333,109.690167 45.018,110.091333 45.134,110.188 C45.6753333,110.613333 46.3423333,110.874333 47.135,110.971 C47.2615455,110.986818 48.0190207,110.996165 49.4074256,110.999041 L51.4426983,110.999041 Z M75.9469648,110.99966 C77.2372383,110.996262 78.00925,110.967375 78.263,110.913 C78.9203333,110.758333 79.4906667,110.487667 79.974,110.101 C80.5153333,109.675667 80.9503333,109.298667 81.279,108.97 C81.975,108.274 82.381,107.462 82.497,106.534 C82.5128182,106.391636 82.5221653,105.621579 82.5251229,104.223826 L82.5251229,102.208285 C82.5223453,100.779921 82.512971,100.017826 82.497,99.922 C82.381,98.9166667 81.975,98.0853333 81.279,97.428 C81.2403333,97.3893333 81.1436667,97.3023333 80.989,97.167 C80.8343333,97.0316667 80.6555,96.8721667 80.4525,96.6885 C80.2495,96.5048333 80.09,96.3646667 79.974,96.268 C79.568,95.978 79.1813333,95.7653333 78.814,95.63 C78.582,95.5333333 78.3113333,95.4656667 78.002,95.427 C77.886,95.4076667 77.132,95.398 75.74,95.398 L75.74,95.398 L73.478,95.398 C72.6853333,95.514 72.0086667,95.7943333 71.448,96.239 C71.042,96.5096667 70.549,96.935 69.969,97.515 C69.3503333,98.153 68.983,98.936 68.867,99.864 C68.8511818,99.9905455 68.8418347,100.751256 68.8388771,102.146132 L68.8388771,104.160715 C68.8416547,105.589079 68.851029,106.351174 68.867,106.447 C68.9443333,107.394333 69.3116667,108.196667 69.969,108.854 C70.201,109.144 70.6843333,109.569333 71.419,110.13 C71.9603333,110.536 72.5113333,110.797 73.072,110.913 C73.3813333,110.971 74.2513333,111 75.682,111 L75.9469648,110.99966 Z M75.9253281,108.215547 L75.4349336,108.215434 C74.2330195,108.20977 73.532375,108.161625 73.333,108.071 C73.2363333,108.013 72.985,107.81 72.579,107.462 C72.0956667,107.075333 71.8153333,106.785333 71.738,106.592 L71.738,106.592 L71.709,106.534 C71.651,106.418 71.622,105.78 71.622,104.62 L71.622,100.096 L71.68,99.951 C71.7766667,99.6803333 72.0473333,99.3613333 72.492,98.994 L72.492,98.994 L73.101,98.443 C73.2556667,98.327 73.391,98.2593333 73.507,98.24 C73.6423333,98.182 74.377,98.153 75.711,98.153 C77.0063333,98.1723333 77.683,98.1916667 77.741,98.211 C77.8763333,98.2303333 78.0116667,98.2883333 78.147,98.385 C78.2436667,98.443 78.4805,98.6363333 78.8575,98.965 C79.2345,99.2936667 79.4326667,99.4773333 79.452,99.516 C79.5486667,99.632 79.6356667,99.806 79.713,100.038 C79.7323333,100.096 79.742,101.149667 79.742,103.199 L79.742,103.199 L79.742,106.273 L79.684,106.447 C79.626,106.621 79.5535,106.756333 79.4665,106.853 C79.3795,106.949667 79.162,107.143 78.814,107.433 C78.4273333,107.781 78.1373333,108.003333 77.944,108.1 C77.77,108.177333 77.016,108.216 75.682,108.216 L75.9253281,108.215547 Z M103.108472,110.999194 C103.707269,110.996509 104.071111,110.987111 104.2,110.971 C105.012,110.874333 105.708,110.594 106.288,110.13 C106.326667,110.110667 106.539333,109.927 106.926,109.579 C107.119333,109.424333 107.303,109.279333 107.477,109.144 L107.477,109.144 L107.477,109.434 C107.477,109.917333 107.622,110.304 107.912,110.594 C108.086,110.768 108.250333,110.874333 108.405,110.913 C108.772333,111.048333 109.13,111.029 109.478,110.855 C109.768,110.719667 109.980667,110.507 110.116,110.217 C110.135333,110.159 110.174,110.072 110.232,109.956 C110.251333,109.878667 110.261,106.65 110.261,100.27 C110.261,93.89 110.251333,90.6613333 110.232,90.584 C110.135333,90.2746667 109.971,90.033 109.739,89.859 C109.545667,89.7236667 109.371667,89.6366667 109.217,89.598 C109.043,89.54 108.84,89.5303333 108.608,89.569 C108.356667,89.627 108.134333,89.7526667 107.941,89.946 C107.786333,90.062 107.641333,90.2843333 107.506,90.613 L107.506,90.613 L107.506,90.99 C107.506,91.1253333 107.501167,91.3041667 107.4915,91.5265 C107.481833,91.7488333 107.477,92.0726667 107.477,92.498 L107.477,97.254 L106.926,96.79 C106.636,96.558 106.413667,96.3646667 106.259,96.21 C105.679,95.7846667 105.012,95.5236667 104.258,95.427 C103.948667,95.3883333 103.436333,95.369 102.721,95.369 C101.831667,95.369 101.193667,95.4076667 100.807,95.485 C100.207667,95.6203333 99.6566667,95.8716667 99.154,96.239 C98.574,96.703 98.0906667,97.1283333 97.704,97.515 C97.0853333,98.1916667 96.718,98.994 96.602,99.922 C96.5826667,100.057333 96.5681667,101.14 96.5585,103.17 C96.5488333,105.2 96.5536667,106.292333 96.573,106.447 C96.689,107.413667 97.066,108.216 97.704,108.854 C97.936,109.144 98.4193333,109.569333 99.154,110.13 C99.734,110.594 100.43,110.874333 101.242,110.971 C101.370889,110.987111 101.734731,110.996509 102.333528,110.999194 L103.108472,110.999194 Z M102.721,108.216 L101.474,108.216 L101.329,108.187 C101.097,108.109667 100.758667,107.868 100.314,107.462 C99.8306667,107.075333 99.5503333,106.785333 99.473,106.592 C99.473,106.572667 99.4633333,106.553333 99.444,106.534 C99.386,106.418 99.357,105.78 99.357,104.62 L99.3573867,101.549222 C99.3609956,100.514674 99.3898667,99.9432667 99.444,99.835 L99.444,99.835 L99.473,99.777 C99.5503333,99.5836667 99.8306667,99.2936667 100.314,98.907 C100.816667,98.4623333 101.184,98.2206667 101.416,98.182 C101.493333,98.1626667 101.918667,98.153 102.692,98.153 C103.465333,98.153 103.900333,98.1626667 103.997,98.182 C104.190333,98.2206667 104.354667,98.2883333 104.49,98.385 C104.567333,98.4236667 105.012,98.791 105.824,99.487 C106.636,100.183 107.080667,100.569667 107.158,100.647 C107.274,100.782333 107.361,100.956333 107.419,101.169 L107.419,101.169 L107.477,101.285 L107.477,105.113 L107.419,105.258 C107.322333,105.528667 107.1,105.809 106.752,106.099 L106.752,106.099 L105.505,107.143 C104.847667,107.723 104.461,108.032333 104.345,108.071 C104.151667,108.167667 103.610333,108.216 102.721,108.216 L102.721,108.216 Z M130.543,92.324 C131.161667,92.324 131.567667,92.2756667 131.761,92.179 C132.031667,92.0243333 132.234667,91.8116667 132.37,91.541 C132.466667,91.3476667 132.515,90.9513333 132.515,90.352 C132.515,89.7526667 132.466667,89.3563333 132.37,89.163 C132.234667,88.8923333 132.031667,88.6796667 131.761,88.525 C131.567667,88.4283333 131.152,88.38 130.514,88.38 C129.914667,88.38 129.586,88.3896667 129.528,88.409 C129.276667,88.4476667 129.035,88.5733333 128.803,88.786 C128.648333,88.9406667 128.542,89.105 128.484,89.279 C128.426,89.4336667 128.397,89.7913333 128.397,90.352 C128.397,90.9126667 128.426,91.2703333 128.484,91.425 C128.522667,91.5603333 128.629,91.7246667 128.803,91.918 C128.977,92.092 129.141333,92.1983333 129.296,92.237 C129.47,92.295 129.885667,92.324 130.543,92.324 Z M135.444,111 L135.589,110.942 C136.014333,110.806667 136.304333,110.565 136.459,110.217 C136.555667,110.043 136.604,109.84 136.604,109.608 C136.604,109.395333 136.555667,109.192333 136.459,108.999 C136.304333,108.631667 136.014333,108.39 135.589,108.274 L135.589,108.274 L135.473,108.245 L133.994,108.216 L132.515,108.216 L132.515,102.387 C132.515,98.4816667 132.505333,96.4903333 132.486,96.413 C132.389333,96.1616667 132.302333,95.9876667 132.225,95.891 C132.070333,95.7363333 131.915667,95.6203333 131.761,95.543 C131.741667,95.543 131.722333,95.5333333 131.703,95.514 C131.567667,95.4366667 131.026333,95.398 130.079,95.398 L130.079,95.398 L126.831,95.398 C126.560333,95.4366667 126.318667,95.5526667 126.106,95.746 C125.893333,95.9393333 125.758,96.1713333 125.7,96.442 C125.603333,96.8093333 125.651667,97.1525 125.845,97.4715 C126.038333,97.7905 126.318667,97.9983333 126.686,98.095 L126.686,98.095 L126.802,98.153 L129.76,98.153 L129.76,108.216 L128.281,108.216 L126.802,108.245 L126.686,108.274 C126.009333,108.467333 125.671,108.912 125.671,109.608 C125.671,110.304 126.009333,110.748667 126.686,110.942 L126.686,110.942 L126.831,111 L135.444,111 Z M164.252,111 C164.580667,111.019333 164.8755,110.932333 165.1365,110.739 C165.3975,110.545667 165.576333,110.284667 165.673,109.956 C165.692333,109.878667 165.702,109.743333 165.702,109.55 C165.702,109.376 165.644,107.597333 165.528,104.214 C165.419733,101.056222 165.361991,99.3552326 165.354773,99.1110311 L165.354,99.081 C165.238,98.1143333 164.851333,97.3023333 164.194,96.645 C163.556,95.9683333 162.773,95.5623333 161.845,95.427 C161.729,95.4076667 161.3085,95.3931667 160.5835,95.3835 C159.8585,95.3738333 159.409,95.3786667 159.235,95.398 C158.771,95.456 158.307,95.5913333 157.843,95.804 C157.611,95.9393333 157.06,96.2873333 156.19,96.848 L156.19,96.848 L154.827,97.718 L154.798,97.138 C154.798,96.7126667 154.769,96.413 154.711,96.239 C154.595,95.9683333 154.401667,95.746 154.131,95.572 C153.841,95.398 153.522,95.34 153.174,95.398 C152.903333,95.456 152.661667,95.5913333 152.449,95.804 C152.255667,95.9973333 152.120333,96.239 152.043,96.529 C152.026981,96.6090952 152.017598,98.1492122 152.014852,101.149351 L152.014852,105.247797 C152.017598,108.245189 152.026981,109.775924 152.043,109.84 C152.139667,110.168667 152.275,110.42 152.449,110.594 C152.603667,110.748667 152.768,110.855 152.942,110.913 C153.29,111.048333 153.657333,111.029 154.044,110.855 C154.314667,110.700333 154.517667,110.487667 154.653,110.217 C154.672333,110.197667 154.682,110.178333 154.682,110.159 C154.759333,110.043 154.798,109.076333 154.798,107.259 L154.798,107.259 L154.798,105.432 L154.827,101.024 L156.886,99.69 C158.181333,98.8586667 158.916,98.3946667 159.09,98.298 C159.225333,98.2206667 159.689333,98.182 160.482,98.182 L160.482,98.182 L161.497,98.182 L161.671,98.24 C162.154333,98.3946667 162.454,98.733 162.57,99.255 C162.57,99.2743333 162.574833,99.429 162.5845,99.719 L162.587496,99.8055207 C162.59868,100.118689 162.621848,100.679515 162.657,101.488 C162.695667,102.377333 162.734333,103.411667 162.773,104.591 C162.908333,108.148333 163.005,110.014 163.063,110.188 C163.314333,110.690667 163.710667,110.961333 164.252,111 Z M188.71,116.829 C189.58,116.732333 190.324333,116.423 190.943,115.901 C191.697,115.301667 192.161,114.895667 192.335,114.683 C192.953667,114.025667 193.321,113.252333 193.437,112.363 C193.456333,112.189 193.466,109.530667 193.466,104.388 C193.466,99.168 193.437,96.471 193.379,96.297 L193.379,96.297 L193.263,96.065 C193.166333,95.8716667 193.002,95.7073333 192.77,95.572 C192.538,95.4173333 192.248,95.3593333 191.9,95.398 C191.687333,95.4366667 191.513333,95.4946667 191.378,95.572 C191.088,95.746 190.894667,95.9683333 190.798,96.239 C190.74,96.3743333 190.701333,96.5966667 190.682,96.906 L190.682,96.906 L190.682,97.254 L190.131,96.79 C189.841,96.558 189.618667,96.3646667 189.464,96.21 C188.884,95.7846667 188.217,95.5236667 187.463,95.427 C187.173,95.3883333 186.651,95.3786667 185.897,95.398 L185.897,95.398 L184.418,95.398 C183.625333,95.5333333 182.939,95.8136667 182.359,96.239 C181.779,96.703 181.295667,97.1283333 180.909,97.515 C180.271,98.1723333 179.894,98.994 179.778,99.98 L179.778,99.98 L179.778358,102.992599 C179.782416,104.579126 179.820963,105.527593 179.894,105.838 C180.068,106.553333 180.406333,107.172 180.909,107.694 C180.947667,107.732667 181.0685,107.839 181.2715,108.013 C181.4745,108.187 181.692,108.3755 181.924,108.5785 C182.156,108.7815 182.301,108.912 182.359,108.97 C182.997,109.434 183.693,109.714333 184.447,109.811 C184.575889,109.827111 184.939731,109.836509 185.538528,109.839194 L186.313472,109.839194 C186.912269,109.836509 187.276111,109.827111 187.405,109.811 C188.081667,109.714333 188.690667,109.492 189.232,109.144 C189.309333,109.086 189.609,108.844333 190.131,108.419 C190.305,108.264333 190.479,108.119333 190.653,107.984 C190.672333,107.964667 190.682,108.075833 190.682,108.3175 L190.682,108.3175 L190.682,112.102 L190.624,112.276 C190.546667,112.527333 190.237333,112.875333 189.696,113.32 C189.232,113.726 188.903333,113.958 188.71,114.016 L188.71,114.016 L188.594,114.045 L185.433,114.045 L182.272,114.074 L182.156,114.103 C181.479333,114.315667 181.141,114.760333 181.141,115.437 C181.141,116.133 181.479333,116.587333 182.156,116.8 L182.156,116.8 L182.272,116.829 L188.71,116.829 Z M185.926,107.056 L184.679,107.056 L184.534,106.998 C184.302,106.920667 183.963667,106.688667 183.519,106.302 C183.035667,105.915333 182.755333,105.625333 182.678,105.432 L182.678,105.432 L182.649,105.374 C182.591,105.258 182.562,104.726333 182.562,103.779 L182.562,100.183 C182.562,100.047667 182.600667,99.9123333 182.678,99.777 C182.755333,99.5836667 183.035667,99.2936667 183.519,98.907 C184.021667,98.4623333 184.389,98.2206667 184.621,98.182 C184.698333,98.1626667 185.123667,98.153 185.897,98.153 C186.670333,98.153 187.105333,98.1626667 187.202,98.182 C187.395333,98.2206667 187.559667,98.2883333 187.695,98.385 C187.772333,98.4236667 188.217,98.791 189.029,99.487 C189.841,100.183 190.285667,100.569667 190.363,100.647 C190.479,100.782333 190.566,100.956333 190.624,101.169 L190.624,101.169 L190.682,101.285 L190.682,103.924 L190.624,104.098 C190.527333,104.349333 190.295333,104.629667 189.928,104.939 L189.928,104.939 L188.652,106.041 C188.072,106.543667 187.714333,106.833667 187.579,106.911 C187.366333,107.007667 186.815333,107.056 185.926,107.056 L185.926,107.056 Z" id="coding" fill="#02FFFF" fill-rule="nonzero"></path>
                            <path d="M49.8500624,142.999258 C51.6228208,142.996659 52.5498,142.98724 52.631,142.971 C52.9596667,142.913 53.2303333,142.7535 53.443,142.4925 C53.6556667,142.2315 53.762,141.936667 53.762,141.608 C53.762,140.97 53.4816667,140.544667 52.921,140.332 C52.7856667,140.274 51.413,140.235333 48.803,140.216 L48.803,140.216 L44.975,140.216 L44.83,140.187 C44.6366667,140.129 44.308,139.887333 43.844,139.462 C43.3606667,139.075333 43.0803333,138.785333 43.003,138.592 C42.9256667,138.437333 42.887,138.147333 42.887,137.722 L42.887,137.722 L42.858,137.171 L48.7053448,137.170379 C51.2957816,137.166793 52.643,137.147667 52.747,137.113 C52.9016667,137.093667 53.0756667,137.006667 53.269,136.852 C53.4236667,136.755333 53.5493333,136.600667 53.646,136.388 C53.7426667,136.175333 53.791,135.411667 53.791,134.097 C53.791,132.685667 53.762,131.835 53.704,131.545 C53.5686667,130.791 53.211,130.114333 52.631,129.515 C52.573,129.437667 52.1186667,129.031667 51.268,128.297 C50.7653333,127.910333 50.195,127.639667 49.557,127.485 C49.1703333,127.407667 48.2906667,127.378667 46.918,127.398 L46.918,127.398 L44.743,127.398 C43.931,127.514 43.2253333,127.813667 42.626,128.297 C41.756,129.051 41.292,129.457 41.234,129.515 C40.6153333,130.153 40.248,130.936 40.132,131.864 C40.1161818,131.990545 40.1068347,132.751256 40.1038771,134.146132 L40.1038771,136.160715 C40.1066547,137.589079 40.116029,138.351174 40.132,138.447 C40.2093333,139.394333 40.5766667,140.196667 41.234,140.854 C41.466,141.144 41.9493333,141.569333 42.684,142.13 C43.264,142.594 43.96,142.874333 44.772,142.971 C44.90192,142.98724 45.8571568,142.996659 47.6377104,142.999258 L49.8500624,142.999258 Z M51.007,134.387 L42.858,134.387 L42.887,133.256 L42.887,132.096 L42.945,131.951 C43.003,131.777 43.0803333,131.622333 43.177,131.487 C43.1963333,131.467667 43.2398333,131.429 43.3075,131.371 C43.3751667,131.313 43.4621667,131.235667 43.5685,131.139 C43.6748333,131.042333 43.7763333,130.955333 43.873,130.878 C44.3176667,130.491333 44.6173333,130.278667 44.772,130.24 C44.888,130.182 45.6323333,130.153 47.005,130.153 L47.005,130.153 L48.919,130.182 L49.035,130.211 C49.267,130.288333 49.5956667,130.510667 50.021,130.878 C50.4463333,131.264667 50.6686667,131.467667 50.688,131.487 C50.7653333,131.583667 50.8233333,131.670667 50.862,131.748 C50.9586667,131.941333 51.007,132.444 51.007,133.256 L51.007,133.256 L51.007,134.387 Z M86.7425,142.942 C87.2548333,143.096667 87.6946667,142.990333 88.062,142.623 C88.3133333,142.391 88.4583333,142.110667 88.497,141.782 C88.5163333,141.743333 88.5066667,141.144 88.468,139.984 L88.468,139.984 L88.294,134.793 C88.1973333,132.627667 88.149,131.390333 88.149,131.081 C88.0523333,130.211 87.7188333,129.447333 87.1485,128.79 C86.5781667,128.132667 85.8676667,127.707333 85.017,127.514 C84.7076667,127.436667 83.5863333,127.398 81.653,127.398 L81.653,127.398 L78.753,127.398 C78.405,127.436667 78.1053333,127.601 77.854,127.891 C77.7186667,128.103667 77.6316667,128.268 77.593,128.384 C77.5736667,128.461333 77.564,128.587 77.564,128.761 C77.564,128.935 77.5736667,129.060667 77.593,129.138 C77.7476667,129.544 77.9893333,129.834 78.318,130.008 C78.492,130.085333 78.6853333,130.128833 78.898,130.1385 C79.0606275,130.145892 79.6019942,130.150458 80.5221003,130.152197 L81.479,130.153 L84.292,130.182 L84.466,130.24 C84.9493333,130.394667 85.249,130.733 85.365,131.255 C85.365,131.274333 85.3698333,131.3275 85.3795,131.4145 C85.3891667,131.5015 85.3988333,131.636833 85.4085,131.8205 C85.4181667,132.004167 85.423,132.192667 85.423,132.386 C85.423,132.753333 85.4326667,133.082 85.452,133.372 L85.452,133.372 L85.394,133.372 C85.3746667,133.372 85.336,133.362333 85.278,133.343 C85.2393333,133.323667 85.104,133.294667 84.872,133.256 L84.872,133.256 L84.64,133.227 L78.55,133.227 L78.318,133.256 C77.3706667,133.43 76.5973333,133.836 75.998,134.474 C75.36,135.112 74.983,135.895 74.867,136.823 C74.8476667,136.977667 74.838,137.403 74.838,138.099 L74.83829,138.29968 C74.84003,138.87736 74.8496,139.2358 74.867,139.375 C74.983,140.283667 75.36,141.076333 75.998,141.753 C76.52,142.294333 77.1676667,142.671333 77.941,142.884 C78.2696667,142.961333 79.2556667,143 80.899,143 L81.6199722,142.999194 C82.718213,142.996509 83.2995556,142.987111 83.364,142.971 C83.4413333,142.951667 83.8956667,142.71 84.727,142.246 L84.727,142.246 L85.742,141.666 L85.742,141.753 L85.771,141.84 L85.771,141.84 L85.771,141.927 C85.9063333,142.449 86.2301667,142.787333 86.7425,142.942 Z M82.668,140.216 L80.203,140.215547 C79.188,140.213432 78.6466667,140.203917 78.579,140.187 C78.0956667,140.032333 77.7863333,139.713333 77.651,139.23 L77.651,139.23 L77.622,139.114 L77.622,137.113 L77.651,136.968 C77.8056667,136.523333 78.086,136.223667 78.492,136.069 C78.608,136.030333 78.6853333,136.011 78.724,136.011 L78.724,136.011 L84.495,136.011 L84.669,136.069 C84.8236667,136.107667 84.9686667,136.185 85.104,136.301 C85.2973333,136.436333 85.4423333,136.658667 85.539,136.968 C85.5583333,137.026 85.5776667,137.306333 85.597,137.809 C85.6163333,138.060333 85.626,138.292333 85.626,138.505 L85.626,138.505 L84.147,139.375 L82.668,140.216 Z M110.472,142.913 C110.82,143.048333 111.187333,143.029 111.574,142.855 C111.844667,142.700333 112.047667,142.487667 112.183,142.217 C112.202333,142.197667 112.212,142.178333 112.212,142.159 C112.289333,142.043 112.328,141.182667 112.328,139.578 L112.328,139.578 L112.328,134.068 L116.91,130.182 L118.128,130.182 C119.036667,130.182 119.568333,130.220667 119.723,130.298 C119.935667,130.394667 120.090333,130.510667 120.187,130.646 C120.283667,130.762 120.361,130.907 120.419,131.081 L120.419,131.081 L120.477,131.255 L120.477,131.893 C120.496333,132.337667 120.515667,132.589 120.535,132.647 C120.728333,133.323667 121.173,133.662 121.869,133.662 C122.197667,133.662 122.4925,133.555667 122.7535,133.343 C123.0145,133.130333 123.174,132.859667 123.232,132.531 C123.251333,132.415 123.261,132.173333 123.261,131.806 C123.261,131.438667 123.251333,131.168 123.232,130.994 C123.116,130.143333 122.772833,129.399 122.2025,128.761 C121.632167,128.123 120.931333,127.697667 120.1,127.485 C119.790667,127.427 119.036667,127.398 117.838,127.398 C116.736,127.398 116.156,127.407667 116.098,127.427 C115.885333,127.485 115.740333,127.543 115.663,127.601 C115.547,127.678333 114.976667,128.161667 113.952,129.051 C113.372,129.553667 112.840333,130.008 112.357,130.414 L112.357,130.414 L112.328,129.544 C112.328,128.867333 112.299,128.451667 112.241,128.297 C112.202333,128.181 112.173333,128.103667 112.154,128.065 C112.018667,127.871667 111.854333,127.707333 111.661,127.572 C111.371,127.398 111.052,127.34 110.704,127.398 C110.433333,127.456 110.191667,127.591333 109.979,127.804 C109.785667,127.997333 109.650333,128.239 109.573,128.529 C109.556981,128.609095 109.547598,130.149212 109.544852,133.149351 L109.544852,137.247797 C109.547598,140.245189 109.556981,141.775924 109.573,141.84 C109.669667,142.168667 109.805,142.42 109.979,142.594 C110.133667,142.748667 110.298,142.855 110.472,142.913 Z M152.611151,142.999613 C153.70705,142.996004 154.390333,142.967133 154.661,142.913 C155.337667,142.777667 155.937,142.497333 156.459,142.072 C157.309667,141.395333 157.812333,140.525333 157.967,139.462 C158.025,139.094667 157.933167,138.756333 157.6915,138.447 C157.449833,138.137667 157.135667,137.954 156.749,137.896 C156.285,137.838 155.888667,137.992667 155.56,138.36 C155.405333,138.534 155.289333,138.795 155.212,139.143 C155.076667,139.587667 154.835,139.897 154.487,140.071 C154.274333,140.167667 153.607333,140.216 152.486,140.216 L150.891,140.216 L150.717,140.158 C150.601,140.119333 150.456,140.042 150.282,139.926 C150.088667,139.732667 149.953333,139.52 149.876,139.288 L149.876,139.288 L149.818,139.143 L149.818,134.648 L149.789,130.153 L155.473,130.153 L155.589,130.124 C156.014333,129.969333 156.304333,129.727667 156.459,129.399 C156.555667,129.205667 156.604,128.993 156.604,128.761 C156.604,128.548333 156.555667,128.345333 156.459,128.152 C156.304333,127.784667 156.014333,127.543 155.589,127.427 L155.589,127.427 L155.473,127.398 L152.631,127.398 L149.789,127.369 L149.789,125.629 C149.789,124.411 149.740667,123.695667 149.644,123.483 C149.528,123.251 149.325,123.048 149.035,122.874 C148.996333,122.854667 148.938333,122.835333 148.861,122.816 L148.861,122.816 L148.774,122.758 C148.503333,122.7 148.290667,122.690333 148.136,122.729 C147.672,122.845 147.353,123.096333 147.179,123.483 C147.082333,123.695667 147.034,124.411 147.034,125.629 L147.034,125.629 L147.034,127.369 L146.222,127.398 C145.7,127.398 145.400333,127.407667 145.323,127.427 C144.646333,127.639667 144.308,128.084333 144.308,128.761 C144.308,129.457 144.646333,129.911333 145.323,130.124 C145.400333,130.143333 145.7,130.153 146.222,130.153 L147.034,130.153 L147.034,134.648 C147.034,137.625333 147.043667,139.201 147.063,139.375 C147.179,140.283667 147.556,141.076333 148.194,141.753 C148.774,142.371667 149.528,142.768 150.456,142.942 L150.456,142.942 L150.688,143 L152.611151,142.999613 Z M191.252,143 C191.580667,143.019333 191.8755,142.932333 192.1365,142.739 C192.3975,142.545667 192.576333,142.284667 192.673,141.956 C192.692333,141.878667 192.702,141.743333 192.702,141.55 C192.702,141.376 192.644,139.597333 192.528,136.214 C192.412,132.830667 192.354,131.119667 192.354,131.081 C192.238,130.114333 191.851333,129.302333 191.194,128.645 C190.556,127.968333 189.773,127.562333 188.845,127.427 C188.729,127.407667 188.3085,127.393167 187.5835,127.3835 C186.8585,127.373833 186.409,127.378667 186.235,127.398 C185.771,127.456 185.307,127.591333 184.843,127.804 C184.611,127.939333 184.06,128.287333 183.19,128.848 L183.19,128.848 L181.827,129.718 L181.798,126.209 C181.798,124.140333 181.793167,123.014167 181.7835,122.8305 C181.773833,122.646833 181.730333,122.477667 181.653,122.323 C181.517667,122.052333 181.314667,121.839667 181.044,121.685 L181.044,121.685 L180.783,121.598 C180.609,121.54 180.406,121.530333 180.174,121.569 C179.922667,121.607667 179.681,121.743 179.449,121.975 C179.255667,122.168333 179.120333,122.41 179.043,122.7 C179.027029,122.779855 179.017655,124.97396 179.01484,129.282315 L179.01484,135.227823 C179.017571,139.571771 179.026957,141.77583 179.043,141.84 C179.139667,142.168667 179.275,142.42 179.449,142.594 C179.603667,142.748667 179.768,142.855 179.942,142.913 C180.29,143.048333 180.657333,143.029 181.044,142.855 C181.314667,142.700333 181.517667,142.487667 181.653,142.217 C181.672333,142.197667 181.682,142.178333 181.682,142.159 C181.759333,142.043 181.798,141.076333 181.798,139.259 L181.798,139.259 L181.798,137.432 L181.827,133.024 L183.886,131.69 C185.181333,130.858667 185.916,130.394667 186.09,130.298 C186.225333,130.220667 186.689333,130.182 187.482,130.182 L187.482,130.182 L188.497,130.182 L188.671,130.24 C189.154333,130.394667 189.454,130.733 189.57,131.255 C189.57,131.274333 189.574833,131.429 189.5845,131.719 L189.587496,131.805521 C189.59868,132.118689 189.621848,132.679515 189.657,133.488 C189.695667,134.377333 189.734333,135.411667 189.773,136.591 C189.908333,140.109667 189.976,141.888333 189.976,141.927 C190.169333,142.584333 190.594667,142.942 191.252,143 Z" id="earth" fill="#FF9900" fill-rule="nonzero" transform="translate(116.402939, 132.278270) rotate(180.000000) translate(-116.402939, -132.278270) "></path>
                        </g>
                    </g>
                </g>
            </g>
        </g>
    </g>
</svg>