<?xml version="1.0" encoding="UTF-8"?>
<svg width="24px" height="24px" viewBox="0 0 24 24" version="1.1" xmlns="http://www.w3.org/2000/svg" xmlns:xlink="http://www.w3.org/1999/xlink">
    <!-- Generator: Sketch 62 (91390) - https://sketch.com -->
    <title>colormode-dark</title>
    <desc>Created with Sketch.</desc>
    <g id="Symbols" stroke="none" stroke-width="1" fill="none" fill-rule="evenodd">
        <g id="Header" transform="translate(-603.000000, -8.000000)" fill="#FFFFFF" fill-rule="nonzero">
            <g id="colormode-dark">
                <g transform="translate(603.000000, 8.000000)">
                    <path d="M10.719,2.082 C8.147,4.11 6,7.294 6,12 C6,16.569 7.938,19.798 10.548,21.895 C5.719,21.19 2,17.021 2,12 C2,6.92 5.808,2.712 10.719,2.082 L10.719,2.082 Z M12,0 C5.383,0 0,5.383 0,12 C0,18.617 5.383,24 12,24 C13.894,24 15.87,23.667 17.37,22.821 C13.917,22.208 8,19.454 8,12 C8,4.445 14.422,1.683 17.37,1.179 C15.63,0.497 13.894,0 12,0 Z M12,10.999 C13.437,11.437 14.562,12.563 14.999,14 C15.439,12.563 16.564,11.438 18,11 C16.564,10.561 15.439,9.437 14.999,8 C14.562,9.436 13.437,10.561 12,10.999 Z M20.001,11 C20.959,11.293 21.708,12.042 22.001,13.001 C22.292,12.042 23.043,11.292 24,11 C23.043,10.708 22.293,9.958 22,9 C21.707,9.958 20.958,10.708 20.001,11 Z M19.001,2 C18.564,3.437 17.438,4.562 16.003,5.001 C17.441,5.441 18.564,6.565 19.004,8.003 C19.441,6.565 20.567,5.44 22,5.001 C20.567,4.564 19.441,3.437 19.001,2 Z" id="Shape"></path>
                </g>
            </g>
        </g>
    </g>
</svg>