<?xml version="1.0" encoding="UTF-8"?>
<svg width="28px" height="28px" viewBox="0 0 28 28" version="1.1" xmlns="http://www.w3.org/2000/svg" xmlns:xlink="http://www.w3.org/1999/xlink">
    <!-- Generator: Sketch 62 (91390) - https://sketch.com -->
    <title>colormode-light</title>
    <desc>Created with Sketch.</desc>
    <g id="Symbols" stroke="none" stroke-width="1" fill="none" fill-rule="evenodd">
        <g id="Header" transform="translate(-601.000000, -6.000000)" fill="#FFFFFF" fill-rule="nonzero">
            <g id="colormode-light">
                <g transform="translate(601.000000, 6.000000)">
                    <path d="M25.7693333,15.3136667 L28,14 L25.7693333,12.6863333 C24.5781667,11.984 24.1686667,10.458 24.85,9.254 L26.1251667,7 L23.5351667,6.97666667 C22.1526667,6.965 21.035,5.84733333 21.0233333,4.46483333 L21,1.876 L18.746,3.15116667 C17.5431667,3.83133333 16.016,3.423 15.3148333,2.23183333 L14,0 L12.6851667,2.23183333 C11.9828333,3.423 10.4568333,3.8325 9.254,3.15116667 L7,1.876 L6.97666667,4.46483333 C6.965,5.84733333 5.84733333,6.965 4.46483333,6.97666667 L1.87483333,7 L3.15,9.254 C3.83133333,10.458 3.42183333,11.984 2.23066667,12.6863333 L0,14 L2.23066667,15.3136667 C3.42183333,16.016 3.83133333,17.542 3.15,18.746 L1.87483333,21 L4.46483333,21.0233333 C5.84733333,21.035 6.965,22.1526667 6.97666667,23.5351667 L7,26.124 L9.254,24.8488333 C10.4568333,24.1686667 11.984,24.577 12.6851667,25.7681667 L14,28 L15.3148333,25.7681667 C16.0171667,24.577 17.5431667,24.1675 18.746,24.8488333 L21,26.124 L21.0233333,23.5351667 C21.0361667,22.1526667 22.1538333,21.035 23.5351667,21.0233333 L26.1251667,21 L24.85,18.746 C24.1686667,17.5431667 24.577,16.016 25.7693333,15.3136667 Z M13.9661667,23.3333333 C8.82,23.3333333 4.63283333,19.1461667 4.63283333,14 C4.63283333,8.85383333 8.81883333,4.66666667 13.9661667,4.66666667 C19.1135,4.66666667 23.2995,8.85383333 23.2995,14 C23.2995,19.1461667 19.1123333,23.3333333 13.9661667,23.3333333 Z M21,14 C21,17.8651667 17.8651667,21 14,21 C10.1348333,21 7,17.8651667 7,14 C7,10.1348333 10.1348333,7 14,7 C17.8651667,7 21,10.1348333 21,14 Z" id="Shape"></path>
                </g>
            </g>
        </g>
    </g>
</svg>