<?xml version="1.0" encoding="UTF-8"?>
<svg width="30px" height="30px" viewBox="0 0 30 30" version="1.1" xmlns="http://www.w3.org/2000/svg" xmlns:xlink="http://www.w3.org/1999/xlink">
    <!-- Generator: Sketch 62 (91390) - https://sketch.com -->
    <title>colormode-auto</title>
    <desc>Created with Sketch.</desc>
    <g id="Symbols" stroke="none" stroke-width="1" fill="none" fill-rule="evenodd">
        <g id="Header" transform="translate(-600.000000, -5.000000)" fill="#FFFFFF" fill-rule="nonzero">
            <g id="colormode-auto">
                <g transform="translate(600.000000, 5.000000)">
                    <path d="M27.61,16.4075 L30,15 L27.61,13.5925 C26.33375,12.84 25.895,11.205 26.625,9.915 L27.99125,7.5 L25.21625,7.475 C23.735,7.4625 22.5375,6.265 22.525,4.78375 L22.5,2.01 L20.085,3.37625 C18.79625,4.105 17.16,3.6675 16.40875,2.39125 L15,0 L13.59125,2.39125 C12.83875,3.6675 11.20375,4.10625 9.915,3.37625 L7.5,2.01 L7.475,4.78375 C7.4625,6.265 6.265,7.4625 4.78375,7.475 L2.00875,7.5 L3.375,9.915 C4.105,11.205 3.66625,12.84 2.39,13.5925 L0,15 L2.39,16.4075 C3.66625,17.16 4.105,18.795 3.375,20.085 L2.00875,22.5 L4.78375,22.525 C6.265,22.5375 7.4625,23.735 7.475,25.21625 L7.5,27.99 L9.915,26.62375 C11.20375,25.895 12.84,26.3325 13.59125,27.60875 L15,30 L16.40875,27.60875 C17.16125,26.3325 18.79625,25.89375 20.085,26.62375 L22.5,27.99 L22.525,25.21625 C22.53875,23.735 23.73625,22.5375 25.21625,22.525 L27.99125,22.5 L26.625,20.085 C25.895,18.79625 26.3325,17.16 27.61,16.4075 Z M14.96375,25 C9.45,25 4.96375,20.51375 4.96375,15 C4.96375,9.48625 9.44875,5 14.96375,5 C20.47875,5 24.96375,9.48625 24.96375,15 C24.96375,20.51375 20.4775,25 14.96375,25 Z M15,10 C17.7575,10 20,12.2425 20,15 C20,17.7575 17.7575,20 15,20 L15,10 Z M15,7.5 C10.85875,7.5 7.5,10.85875 7.5,15 C7.5,19.14125 10.85875,22.5 15,22.5 C19.14125,22.5 22.5,19.14125 22.5,15 C22.5,10.85875 19.14125,7.5 15,7.5 Z" id="Shape"></path>
                </g>
            </g>
        </g>
    </g>
</svg>