<?xml version="1.0" encoding="UTF-8"?>
<svg width="20px" height="24px" viewBox="0 0 20 24" version="1.1" xmlns="http://www.w3.org/2000/svg" xmlns:xlink="http://www.w3.org/1999/xlink">
    <!-- Generator: Sketch 62 (91390) - https://sketch.com -->
    <title>feather</title>
    <desc>Created with Sketch.</desc>
    <g id="Symbols" stroke="none" stroke-width="1" fill="none" fill-rule="evenodd">
        <g id="Button/Participate" transform="translate(-18.000000, -8.000000)" fill="#FFFFFF" fill-rule="nonzero">
            <g id="Button">
                <g id="feather" transform="translate(18.000000, 8.000000)">
                    <path d="M10.408,13.032 C11.566,12.97 13.262,12.644 14.588,11.904 C15.55,10.426 16.186,9.22 16.812,7.904 C15.952,7.968 14.96,7.895 14.076,7.647 C15.144,7.464 16.484,7.082 17.498,6.431 C18.753,4.647 19.683,1.772 20,0.002 C17.126,-0.046 14.434,0.892 12.614,2.066 C12,2.766 11.468,4.455 11.342,5.349 C11.065,4.703 10.863,3.669 11.1,2.807 C9.642,3.574 8.367,4.45 6.923,5.667 C6.203,7.195 6.089,8.957 6.155,9.943 C5.764,9.39 5.24,8.313 5.313,7.134 C2.723,9.638 0.936,12.918 2.631,16.458 C4.51,14.517 6.67,12.675 7.985,11.819 C4.949,15.293 2.119,19.866 2.66453526e-15,24 L2.504,23.214 C3.588,21.235 4.563,19.53 5.437,18.309 C8.666,18.732 11.533,16.141 13.465,13.514 C12.695,13.704 11.219,13.456 10.408,13.032 L10.408,13.032 Z" id="Path"></path>
                </g>
            </g>
        </g>
    </g>
</svg>