<?xml version="1.0" encoding="UTF-8"?>
<svg width="39px" height="38px" viewBox="0 0 39 38" version="1.1" xmlns="http://www.w3.org/2000/svg" xmlns:xlink="http://www.w3.org/1999/xlink">
    <!-- Generator: Sketch 62 (91390) - https://sketch.com -->
    <title>github</title>
    <desc>Created with Sketch.</desc>
    <g id="Symbols" stroke="none" stroke-width="1" fill="none" fill-rule="evenodd">
        <g id="Footer" transform="translate(-405.000000, -185.000000)" fill="#FFFFFF">
            <g id="Upper-Footer">
                <g>
                    <g id="Follow-us" transform="translate(130.000000, 122.000000)">
                        <g id="Icons" transform="translate(63.000000, 61.000000)">
                            <g id="github" transform="translate(212.105263, 2.000000)">
                                <path d="M19.1086759,9.47390314e-14 C8.55713911,9.47390314e-14 0,8.55596593 0,19.1110222 C0,27.5543633 5.47520814,34.7165973 13.0691705,37.2436164 C14.0253082,37.4195927 14.3737412,36.8294856 14.3737412,36.322674 C14.3737412,35.8686552 14.3573167,34.6673239 14.3479313,33.072979 C9.03227502,34.2273832 7.91071963,30.5107646 7.91071963,30.5107646 C7.04139689,28.302849 5.78844589,27.7150883 5.78844589,27.7150883 C4.05331994,26.5301815 5.9198415,26.553645 5.9198415,26.553645 C7.83798278,26.6885601 8.84691335,28.523406 8.84691335,28.523406 C10.5515368,31.4434388 13.32023,30.5999259 14.4089365,30.1107119 C14.5825664,28.8765317 15.0764731,28.0341919 15.6219995,27.5567097 C11.3786252,27.0745347 6.91704033,25.4344359 6.91704033,18.111477 C6.91704033,16.0255717 7.66200651,14.318602 8.88445496,12.9835287 C8.68736154,12.5001806 8.03155666,10.5562295 9.07216297,7.92597091 C9.07216297,7.92597091 10.6758933,7.41212022 14.3268142,9.88517331 C15.8507686,9.46048392 17.4861747,9.24931241 19.1110222,9.24110018 C20.7346965,9.24931241 22.3689294,9.46048392 23.8952302,9.88517331 C27.5438048,7.41212022 29.1451888,7.92597091 29.1451888,7.92597091 C30.1881414,10.5562295 29.5323365,12.5001806 29.3364163,12.9835287 C30.5612111,14.318602 31.3003114,16.0255717 31.3003114,18.111477 C31.3003114,25.4532067 26.8316875,27.0686688 22.5754083,27.5414584 C23.2605425,28.1315655 23.8717667,29.2977015 23.8717667,31.0797545 C23.8717667,33.6349298 23.8483032,35.6961985 23.8483032,36.322674 C23.8483032,36.8341783 24.1932167,37.4289781 25.1622593,37.2424432 C32.7503558,34.7095582 38.2208713,27.552017 38.2208713,19.1110222 C38.2208713,8.55596593 29.6637321,9.47390314e-14 19.1086759,9.47390314e-14" id="Fill-51"></path>
                            </g>
                        </g>
                    </g>
                </g>
            </g>
        </g>
    </g>
</svg>