<?xml version="1.0" encoding="UTF-8"?>
<svg width="14px" height="20px" viewBox="0 0 14 20" version="1.1" xmlns="http://www.w3.org/2000/svg" xmlns:xlink="http://www.w3.org/1999/xlink">
    <!-- Generator: Sketch 62 (91390) - https://sketch.com -->
    <title>location</title>
    <desc>Created with Sketch.</desc>
    <g id="Page-1" stroke="none" stroke-width="1" fill="none" fill-rule="evenodd">
        <g id="Event-Details" transform="translate(-779.000000, -270.000000)" fill="#808080" fill-rule="nonzero">
            <g id="Meta-Row" transform="translate(0.000000, 220.000000)">
                <g id="Location" transform="translate(779.000000, 49.000000)">
                    <g id="location" transform="translate(0.000000, 1.000000)">
                        <path d="M6.66666667,1.66666667 C9.33,1.66666667 11.6666667,3.84833333 11.6666667,6.335 C11.6666667,8.9125 9.58916667,12.2783333 6.66666667,16.8858333 C3.74416667,12.2783333 1.66666667,8.9125 1.66666667,6.335 C1.66666667,3.84833333 4.00333333,1.66666667 6.66666667,1.66666667 M6.66666667,-1.48029737e-15 C3.16833333,-1.48029737e-15 0,2.83583333 0,6.335 C0,9.83333333 2.89083333,14.01 6.66666667,20 C10.4425,14.01 13.3333333,9.83333333 13.3333333,6.335 C13.3333333,2.83583333 10.1658333,-1.48029737e-15 6.66666667,-1.48029737e-15 Z M6.66666667,9.16666667 C5.28583333,9.16666667 4.16666667,8.0475 4.16666667,6.66666667 C4.16666667,5.28583333 5.28583333,4.16666667 6.66666667,4.16666667 C8.0475,4.16666667 9.16666667,5.28583333 9.16666667,6.66666667 C9.16666667,8.0475 8.0475,9.16666667 6.66666667,9.16666667 Z" id="Shape"></path>
                    </g>
                </g>
            </g>
        </g>
    </g>
</svg>