<?xml version="1.0" encoding="UTF-8"?>
<svg width="42px" height="40px" viewBox="0 0 42 40" version="1.1" xmlns="http://www.w3.org/2000/svg" xmlns:xlink="http://www.w3.org/1999/xlink">
    <!-- Generator: Sketch 62 (91390) - https://sketch.com -->
    <title>meetup</title>
    <desc>Created with Sketch.</desc>
    <g id="Symbols" stroke="none" stroke-width="1" fill="none" fill-rule="evenodd">
        <g id="Footer" transform="translate(-263.000000, -184.000000)" fill="#E1213B" fill-rule="nonzero">
            <g id="Upper-Footer">
                <g>
                    <g id="Follow-us" transform="translate(130.000000, 122.000000)">
                        <g id="Icons" transform="translate(63.000000, 61.000000)">
                            <g id="meetup" transform="translate(70.000000, 1.000000)">
                                <path d="M4.05163853,18.9076465 C4.13108242,19.3843098 4.05163853,19.7815293 3.81330685,20.1787488 C3.57497517,20.5759682 3.17775571,20.8142999 2.70109235,20.8937438 C2.224429,20.9731877 1.82720953,20.8937438 1.42999007,20.5759682 C1.03277061,20.3376365 0.794438928,19.9404171 0.714995035,19.4637537 C0.635551142,18.9870904 0.714995035,18.5898709 0.953326713,18.1926514 C1.27110228,17.795432 1.58887786,17.5571003 2.06554121,17.4776564 C2.54220457,17.3982125 2.93942403,17.4776564 3.3366435,17.7159881 C3.73386296,18.0337637 3.97219464,18.4309831 4.05163853,18.9076465 Z M34.8758689,21.7676266 C35.9086395,23.4359484 36.2264151,25.2631579 35.8291956,27.1698113 C35.4319762,29.0764647 34.4786495,30.6653426 32.8103277,31.7775571 C31.4597815,32.7308838 30.0297915,33.1281033 28.3614697,33.1281033 C28.0436941,34.3197617 27.408143,35.2730884 26.4548163,35.9086395 C25.5014896,36.6236346 24.468719,36.9414101 23.2770606,36.8619662 C22.0854022,36.8619662 21.0526316,36.3853029 20.1787488,35.590864 C20.019861,35.7497517 19.9404171,35.8291956 19.8609732,35.8291956 C18.3515392,36.8619662 16.6832175,37.2591857 14.8560079,36.9414101 C13.0287984,36.6236346 11.5988083,35.6703078 10.5660377,34.1608739 C9.8510427,33.0486594 9.45382324,31.857001 9.37437934,30.5064548 C8.18272095,30.2681231 7.07050645,29.7914598 6.19662363,28.917577 C5.32274081,28.0436941 4.68718967,27.1698113 4.44885799,26.0575968 C4.13108242,25.0248262 4.13108242,23.9126117 4.3694141,22.7209533 C4.68718967,21.5292949 5.24329692,20.4965243 6.19662363,19.6226415 C5.64051639,18.7487587 5.40218471,17.795432 5.32274081,16.7626614 C5.32274081,15.7298908 5.4816286,14.8560079 5.87884806,13.9821251 C6.27606753,13.1082423 6.83217478,12.3932473 7.6266137,11.83714 C8.42105263,11.2015889 9.29493545,10.8838133 10.3277061,10.7249255 C10.8043694,9.45382324 11.5193644,8.34160874 12.5521351,7.46772592 C13.5054618,6.51439921 14.6176763,5.87884806 15.8093347,5.40218471 C17.000993,4.92552135 18.1926514,4.84607746 19.5431976,5.00496524 C20.8937438,5.16385303 22.0059583,5.64051639 23.1181728,6.51439921 C24.1509434,6.19662363 25.183714,6.03773585 26.2164846,6.11717974 C27.2492552,6.19662363 28.2025819,6.43495531 29.0764647,6.91161867 C29.9503476,7.38828203 30.7447865,7.94438928 31.3803376,8.65938431 C32.0158888,9.37437934 32.4925521,10.2482622 32.8897716,11.2015889 C33.2075472,12.2343595 33.366435,13.2671301 33.2869911,14.2999007 C34.08143,14.5382324 34.7169811,14.9354518 35.1936445,15.571003 C35.7497517,16.2065541 36.0675273,16.8421053 36.2264151,17.5571003 C36.3853029,18.2720953 36.305859,18.9870904 36.0675273,19.7815293 C35.9086395,20.6554121 35.5114201,21.2909633 34.8758689,21.7676266 Z M8.02383317,31.857001 C8.18272095,31.9364449 8.34160874,32.1747766 8.34160874,32.3336643 C8.42105263,32.571996 8.34160874,32.7308838 8.26216485,32.9692155 C8.18272095,33.1281033 7.94438928,33.2869911 7.78550149,33.2869911 C7.54716981,33.366435 7.38828203,33.2869911 7.22939424,33.2075472 C7.07050645,33.1281033 6.91161867,32.8897716 6.91161867,32.7308838 C6.83217478,32.4925521 6.91161867,32.3336643 6.99106256,32.0953327 C7.07050645,31.9364449 7.30883813,31.7775571 7.46772592,31.7775571 C7.6266137,31.6981132 7.86494538,31.6981132 8.02383317,31.857001 Z M10.0099305,7.14995035 C10.2482622,7.46772592 10.2482622,7.78550149 10.2482622,8.10327706 C10.1688183,8.50049652 10.0099305,8.7388282 9.69215492,8.97715988 C9.37437934,9.21549156 9.05660377,9.21549156 8.7388282,9.21549156 C8.34160874,9.13604767 8.10327706,8.97715988 7.94438928,8.65938431 C7.7060576,8.34160874 7.7060576,8.02383317 7.7060576,7.7060576 C7.78550149,7.30883813 7.94438928,7.07050645 8.26216485,6.83217478 C8.57994042,6.5938431 8.89771599,6.5938431 9.21549156,6.5938431 C9.53326713,6.67328699 9.77159881,6.83217478 10.0099305,7.14995035 Z M29.4736842,27.5670308 C29.3942403,27.2492552 29.2353525,26.9314796 28.8381331,26.8520357 C28.5203575,26.693148 28.123138,26.6137041 27.7259186,26.6137041 C27.3286991,26.6137041 27.0109235,26.5342602 26.6137041,26.3753724 C26.2164846,26.2164846 26.0575968,25.898709 26.0575968,25.5014896 C25.9781529,24.7864945 26.2164846,23.7537239 26.7725919,22.4031778 C27.3286991,21.0526316 27.8848064,19.7020854 28.4409136,18.3515392 C28.9970209,17.000993 29.2353525,16.1271102 29.1559086,15.4915591 C28.917577,13.9821251 28.123138,13.2671301 26.5342602,13.1876862 C25.898709,13.1876862 25.3426018,13.2671301 24.8659384,13.5054618 L24.7864945,13.5849057 C24.7070506,13.5849057 24.7070506,13.6643496 24.7070506,13.6643496 C24.7070506,13.6643496 24.6276068,13.6643496 24.6276068,13.7437934 C24.5481629,13.7437934 24.5481629,13.7437934 24.5481629,13.8232373 C24.5481629,13.8232373 24.468719,13.8232373 24.468719,13.8232373 C24.3892751,13.8232373 24.3892751,13.8232373 24.3098312,13.8232373 C24.3098312,13.8232373 24.2303873,13.7437934 24.1509434,13.7437934 C24.0714995,13.7437934 24.0714995,13.6643496 23.9920556,13.6643496 C23.9126117,13.6643496 23.9126117,13.5849057 23.7537239,13.5054618 C23.67428,13.4260179 23.5948361,13.346574 23.5153923,13.2671301 C23.4359484,13.1876862 23.4359484,13.1876862 23.3565045,13.1082423 C23.2770606,13.0287984 23.1976167,12.9493545 23.1181728,12.9493545 C23.0387289,12.9493545 22.959285,12.8699106 22.8798411,12.7904667 C22.8003972,12.7110228 22.7209533,12.7110228 22.6415094,12.7110228 C22.5620655,12.7110228 22.4826216,12.6315789 22.4031778,12.6315789 C21.9265144,12.5521351 21.6087388,12.5521351 21.3704071,12.7110228 C21.1320755,12.8699106 20.734856,13.0287984 20.3376365,13.4260179 C20.3376365,13.4260179 20.2581927,13.5054618 20.0993049,13.5849057 C19.9404171,13.6643496 19.8609732,13.7437934 19.8609732,13.8232373 C19.7815293,13.9026812 19.7020854,13.9821251 19.5431976,14.061569 C19.3843098,14.1410129 19.3048659,14.2204568 19.1459782,14.2204568 C19.0665343,14.2204568 18.9076465,14.2204568 18.7487587,14.1410129 C17.9543198,13.7437934 17.3187686,13.4260179 16.9215492,13.2671301 C16.285998,13.0287984 15.6504469,13.0287984 14.8560079,13.346574 C14.061569,13.6643496 13.5054618,14.1410129 13.1876862,14.7765641 C12.9493545,15.1737835 12.6315789,15.8887786 12.3138034,16.9215492 C11.9165839,17.9543198 11.5988083,18.9076465 11.3604767,19.8609732 C11.122145,20.8142999 10.8043694,21.7676266 10.4865938,22.8003972 C10.1688183,23.8331678 10.0099305,24.3892751 10.0099305,24.3892751 C9.69215492,25.4220457 9.8510427,26.2959285 10.40715,27.0109235 C10.9632572,27.7259186 11.83714,28.123138 12.8699106,28.0436941 C13.346574,28.0436941 13.6643496,27.8848064 13.9821251,27.7259186 C14.2999007,27.5670308 14.5382324,27.1698113 14.8560079,26.693148 C14.9354518,26.5342602 15.571003,25.0248262 16.6037736,22.24429 C17.6365442,19.4637537 18.2720953,18.0337637 18.2720953,17.9543198 C18.3515392,17.795432 18.510427,17.6365442 18.7487587,17.5571003 C18.9870904,17.4776564 19.225422,17.4776564 19.3843098,17.5571003 C19.7815293,17.795432 19.9404171,18.1926514 19.8609732,18.7487587 C19.8609732,18.9870904 19.4637537,20.019861 18.7487587,21.8470705 C18.0337637,23.67428 17.6365442,24.6276068 17.6365442,24.7864945 C17.5571003,25.3426018 17.7159881,25.7398213 18.0337637,26.0575968 C18.4309831,26.2959285 18.8282026,26.3753724 19.3843098,26.2164846 C19.9404171,26.0575968 20.3376365,25.6603774 20.5759682,25.1042701 C20.6554121,25.0248262 20.9731877,24.3098312 21.6087388,23.0387289 C22.24429,21.7676266 22.8003972,20.5759682 23.4359484,19.3843098 C24.0714995,18.1926514 24.3892751,17.5571003 24.468719,17.3982125 C24.7864945,17.000993 25.1042701,16.7626614 25.3426018,16.7626614 C25.7398213,16.7626614 25.9781529,17.0804369 25.898709,17.6365442 C25.898709,17.8748759 25.4220457,18.9870904 24.468719,20.8937438 C23.5153923,22.8003972 23.0387289,23.9920556 22.8798411,24.468719 C22.7209533,25.2631579 22.8003972,25.9781529 23.1976167,26.7725919 C23.5948361,27.4875869 24.1509434,28.0436941 24.8659384,28.4409136 C25.1042701,28.5998014 25.5014896,28.6792453 25.9781529,28.7586892 C26.4548163,28.8381331 27.0109235,28.917577 27.5670308,28.917577 C28.123138,28.917577 28.5998014,28.8381331 28.917577,28.5998014 C29.3942403,28.4409136 29.5531281,28.0436941 29.4736842,27.5670308 Z M13.5054618,0.953326713 C13.5849057,1.19165839 13.5054618,1.42999007 13.4260179,1.66832175 C13.2671301,1.90665343 13.1082423,1.98609732 12.8699106,2.06554121 C12.6315789,2.1449851 12.3932473,2.06554121 12.1549156,1.90665343 C11.9165839,1.74776564 11.7576961,1.58887786 11.7576961,1.35054618 C11.6782522,1.1122145 11.7576961,0.87388282 11.9165839,0.635551142 C12.0754717,0.397219464 12.2343595,0.317775571 12.4726912,0.238331678 C12.7110228,0.158887786 12.9493545,0.238331678 13.1876862,0.397219464 C13.346574,0.476663357 13.4260179,0.714995035 13.5054618,0.953326713 Z M20.9731877,38.2125124 C21.1320755,38.4508441 21.2115194,38.7686197 21.1320755,39.0069513 C21.0526316,39.3247269 20.8937438,39.5630586 20.6554121,39.7219464 C20.4170804,39.8808342 20.0993049,39.9602781 19.8609732,39.8808342 C19.5431976,39.8013903 19.3048659,39.6425025 19.1459782,39.4041708 C18.9870904,39.1658391 18.9076465,38.8480636 18.9870904,38.6097319 C19.0665343,38.2919563 19.225422,38.0536246 19.4637537,37.8947368 C19.7020854,37.7358491 20.019861,37.6564052 20.2581927,37.7358491 C20.4965243,37.8152929 20.8142999,37.8947368 20.9731877,38.2125124 Z M25.1042701,2.1449851 C25.3426018,2.54220457 25.4220457,2.93942403 25.2631579,3.41608739 C25.1042701,3.89275074 24.8659384,4.21052632 24.468719,4.44885799 C24.0714995,4.68718967 23.67428,4.76663357 23.1976167,4.60774578 C22.7209533,4.52830189 22.4031778,4.21052632 22.1648461,3.81330685 C21.9265144,3.41608739 21.8470705,2.93942403 22.0059583,2.54220457 C22.0854022,2.06554121 22.4031778,1.74776564 22.8003972,1.50943396 C23.1976167,1.27110228 23.5948361,1.19165839 24.0714995,1.27110228 C24.468719,1.50943396 24.8659384,1.74776564 25.1042701,2.1449851 Z M32.4131082,35.1936445 C32.7308838,35.590864 32.8103277,36.0675273 32.7308838,36.5441907 C32.6514399,37.020854 32.4131082,37.4180735 32.0158888,37.7358491 C31.6186693,38.0536246 31.142006,38.1330685 30.6653426,38.0536246 C30.1886792,37.9741807 29.7914598,37.7358491 29.5531281,37.3386296 C29.2353525,36.9414101 29.1559086,36.4647468 29.2353525,35.9880834 C29.3147964,35.5114201 29.5531281,35.1142006 29.9503476,34.796425 C30.347567,34.4786495 30.8242304,34.3992056 31.3008937,34.4786495 C31.6981132,34.5580933 32.0953327,34.796425 32.4131082,35.1936445 Z M37.3386296,11.3604767 C37.5769613,11.6782522 37.6564052,12.0754717 37.5769613,12.4726912 C37.4975174,12.8699106 37.3386296,13.1876862 37.020854,13.4260179 C36.7030785,13.6643496 36.305859,13.7437934 35.9086395,13.6643496 C35.5114201,13.5849057 35.1936445,13.4260179 34.9553128,13.0287984 C34.7169811,12.7110228 34.6375372,12.3138034 34.7169811,11.9165839 C34.796425,11.5193644 34.9553128,11.2015889 35.3525323,10.9632572 C35.6703078,10.7249255 36.0675273,10.6454816 36.4647468,10.7249255 C36.8619662,10.8043694 37.1797418,11.0427011 37.3386296,11.3604767 Z M39.8013903,21.9265144 C39.8808342,22.24429 39.8013903,22.4826216 39.6425025,22.7209533 C39.4836147,22.959285 39.245283,23.1181728 38.9275074,23.1976167 C38.6097319,23.2770606 38.3714002,23.1976167 38.1330685,23.0387289 C37.8947368,22.8798411 37.7358491,22.6415094 37.6564052,22.3237339 C37.5769613,22.0059583 37.6564052,21.7676266 37.8152929,21.5292949 C37.9741807,21.2909633 38.2125124,21.1320755 38.530288,21.0526316 C38.8480636,20.9731877 39.0863952,21.0526316 39.3247269,21.2115194 C39.5630586,21.449851 39.7219464,21.6881827 39.8013903,21.9265144 Z M41.6285998,16.6832175 C41.7080437,16.9215492 41.6285998,17.0804369 41.5491559,17.3187686 C41.469712,17.4776564 41.2313803,17.6365442 41.0724926,17.7159881 C40.8341609,17.795432 40.6752731,17.7159881 40.4369414,17.5571003 C40.2780536,17.3982125 40.1191658,17.2393247 40.1191658,17.0804369 C40.0397219,16.8421053 40.1191658,16.6832175 40.1986097,16.4448858 C40.2780536,16.285998 40.5163853,16.1271102 40.6752731,16.1271102 C40.9136048,16.0476663 41.0724926,16.1271102 41.2313803,16.2065541 C41.469712,16.285998 41.5491559,16.4448858 41.6285998,16.6832175 Z" id="Shape"></path>
                            </g>
                        </g>
                    </g>
                </g>
            </g>
        </g>
    </g>
</svg>