<?xml version="1.0" encoding="UTF-8"?>
<svg width="41px" height="41px" viewBox="0 0 41 41" version="1.1" xmlns="http://www.w3.org/2000/svg" xmlns:xlink="http://www.w3.org/1999/xlink">
    <!-- Generator: Sketch 62 (91390) - https://sketch.com -->
    <title>slack</title>
    <desc>Created with Sketch.</desc>
    <g id="Symbols" stroke="none" stroke-width="1" fill="none" fill-rule="evenodd">
        <g id="Footer" transform="translate(-335.000000, -183.000000)" fill-rule="nonzero">
            <g id="Upper-Footer">
                <g>
                    <g id="Follow-us" transform="translate(130.000000, 122.000000)">
                        <g id="Icons" transform="translate(63.000000, 61.000000)">
                            <g id="slack" transform="translate(142.105263, -0.000000)">
                                <path d="M14.6633987,0 C12.4526144,0.00163398693 10.6633987,1.79575163 10.6650316,4.00653595 C10.6633987,6.21732026 12.4542484,8.01143791 14.6650316,8.0130719 L18.6650316,8.0130719 L18.6650316,4.00816993 C18.6666667,1.79738562 16.875817,0.00326797386 14.6633987,0 C14.6650316,0 14.6650316,0 14.6633987,0 M14.6633987,10.6862745 L3.99999553,10.6862745 C1.78921569,10.6879085 -0.00163398693,12.4820261 -4.4654838e-06,14.6928105 C-0.00326797386,16.9035948 1.7875817,18.6977124 3.99836601,18.7009804 L14.6633987,18.7009804 C16.874183,18.6993464 18.6650327,16.9052288 18.6633998,14.6944444 C18.6650327,12.4820261 16.874183,10.6879085 14.6633987,10.6862745 Z" id="Shape" fill="#36C5F0"></path>
                                <path d="M39.9934629,14.6928105 C39.995098,12.4820261 38.2042484,10.6879085 35.9934629,10.6862745 C33.7826797,10.6879085 31.9918301,12.4820261 31.9934629,14.6928105 L31.9934629,18.7009804 L35.9934629,18.7009804 C38.2042484,18.6993464 39.995098,16.9052288 39.9934629,14.6928105 Z M29.3284325,14.6928105 L29.3284325,4.00653595 C29.3300609,1.79738562 27.5408497,0.00326797386 25.3300609,0 C23.119281,0.00163398693 21.3284314,1.79575163 21.3300609,4.00653595 L21.3300609,14.6928105 C21.3267974,16.9035948 23.1176471,18.6977124 25.3284314,18.7009804 C27.5392157,18.6993464 29.3300609,16.9052288 29.3284325,14.6928105 Z" id="Shape" fill="#2EB67D"></path>
                                <path d="M25.3284303,40.0735294 C27.5392157,40.0718954 29.3300654,38.2777778 29.3284303,36.0669935 C29.3300654,33.8562092 27.5392157,32.0620915 25.3284303,32.0604575 L21.3284303,32.0604575 L21.3284303,36.0669935 C21.3267974,38.2761438 23.1176471,40.0702614 25.3284303,40.0735294 Z M25.3284314,29.3856209 L35.9934641,29.3856209 C38.2042484,29.3839869 39.995098,27.5898693 39.9934685,25.379085 C39.996732,23.1683007 38.2058824,21.374183 35.995098,21.370915 L25.3300642,21.370915 C23.119281,21.372549 21.3284314,23.1666667 21.3300642,25.377451 C21.3284314,27.5898693 23.1176471,29.3839869 25.3284314,29.3856209 L25.3284314,29.3856209 Z" id="Shape" fill="#ECB22E"></path>
                                <path d="M-1.11725871e-06,25.379085 C-0.00163398693,27.5898693 1.78921569,29.3839869 3.99999888,29.3856209 C6.21078431,29.3839869 8.00163399,27.5898693 7.99999888,25.379085 L7.99999888,21.372549 L3.99999888,21.372549 C1.78921569,21.374183 -0.00163398693,23.1683007 -1.11725871e-06,25.379085 Z M10.6650282,25.379085 L10.6650282,36.0653595 C10.6617647,38.2761438 12.4526144,40.0702614 14.6633987,40.0735294 C16.874183,40.0718954 18.6650282,38.2777778 18.6634032,36.0669935 L18.6634032,25.3823529 C18.6666667,23.1715686 16.875817,21.377451 14.6650282,21.374183 C12.4526144,21.374183 10.6633987,23.1683007 10.6650282,25.379085 C10.6650282,25.379085 10.6650282,25.380719 10.6650282,25.379085" id="Shape" fill="#E01E5A"></path>
                            </g>
                        </g>
                    </g>
                </g>
            </g>
        </g>
    </g>
</svg>