<?xml version="1.0" encoding="UTF-8"?>
<svg width="20px" height="20px" viewBox="0 0 20 20" version="1.1" xmlns="http://www.w3.org/2000/svg" xmlns:xlink="http://www.w3.org/1999/xlink">
    <!-- Generator: Sketch 62 (91390) - https://sketch.com -->
    <title>stream</title>
    <desc>Created with Sketch.</desc>
    <g id="Page-1" stroke="none" stroke-width="1" fill="none" fill-rule="evenodd">
        <g id="Event-Details" transform="translate(-1057.000000, -270.000000)" fill="#808080" fill-rule="nonzero">
            <g id="Meta-Row" transform="translate(0.000000, 220.000000)">
                <g id="Livestream" transform="translate(1057.000000, 49.000000)">
                    <g id="stream" transform="translate(0.000000, 1.000000)">
                        <path d="M10,0 C4.4775,0 0,4.4775 0,10 C0,15.5225 4.4775,20 10,20 C15.5225,20 20,15.5225 20,10 C20,4.4775 15.5225,0 10,0 Z M10,1.66666667 C14.595,1.66666667 18.3333333,5.405 18.3333333,10 C18.3333333,10.5708333 18.275,11.1283333 18.1658333,11.6666667 L17.355,11.6666667 C16.5425,11.6666667 16.4141667,11.2441667 15.975,9.61583333 C15.6575,8.4375 15.13,6.65666667 13.9683333,6.65666667 C12.785,6.65666667 12.3275,8.5025 11.9016667,9.995 C11.67,10.8058333 11.53,11.2958333 11.3225,11.2958333 C11.1225,11.2958333 11.0283333,10.8058333 10.7933333,9.99333333 C10.3533333,8.475 9.85,6.6575 8.67583333,6.6575 C7.45666667,6.6575 6.93583333,8.64666667 6.58666667,9.91416667 C6.33333333,10.835 6.25416667,11.2966667 6.02916667,11.2966667 C5.83833333,11.2966667 5.77666667,10.9225 5.5575,10.1766667 C5.05583333,8.47666667 4.89666667,6.67 2.6575,6.67 L2.36583333,6.67 C3.65416667,3.72833333 6.58916667,1.66666667 10,1.66666667 Z M10,18.3333333 C5.405,18.3333333 1.66666667,14.595 1.66666667,10 C1.66666667,9.42916667 1.725,8.87166667 1.83416667,8.33333333 L2.72833333,8.33333333 C3.51166667,8.33333333 3.58833333,8.72583333 4.02166667,10.3625 C4.31416667,11.4691667 4.85166667,13.3216667 6.02833333,13.3216667 C7.22,13.3216667 7.7225,11.4383333 8.1775,9.87833333 C8.42416667,9.0325 8.4775,8.68166667 8.675,8.68166667 C8.88666667,8.68166667 8.94833333,9.07083333 9.19,9.92416667 C9.62666667,11.4666667 10.1316667,13.3208333 11.3216667,13.3208333 C12.3883333,13.3208333 12.8983333,11.7908333 13.2683333,10.5616667 C13.6916667,9.15666667 13.7533333,8.635 13.9683333,8.635 C14.1883333,8.635 14.2283333,9.09 14.6083333,10.3633333 C15.2208333,12.4158333 15.6116667,13.3333333 17.2525,13.3333333 L17.6325,13.3333333 C16.3433333,16.2725 13.41,18.3333333 10,18.3333333 Z" id="Shape"></path>
                    </g>
                </g>
            </g>
        </g>
    </g>
</svg>