<?xml version="1.0" encoding="UTF-8"?>
<svg width="40px" height="33px" viewBox="0 0 40 33" version="1.1" xmlns="http://www.w3.org/2000/svg" xmlns:xlink="http://www.w3.org/1999/xlink">
    <!-- Generator: Sketch 62 (91390) - https://sketch.com -->
    <title>twitter</title>
    <desc>Created with Sketch.</desc>
    <g id="Symbols" stroke="none" stroke-width="1" fill="none" fill-rule="evenodd">
        <g id="Footer" transform="translate(-193.000000, -187.000000)" fill="#1DA1F2" fill-rule="nonzero">
            <g id="Upper-Footer">
                <g>
                    <g id="Follow-us" transform="translate(130.000000, 122.000000)">
                        <g id="Icons" transform="translate(63.000000, 61.000000)">
                            <g id="twitter" transform="translate(0.000000, 4.000000)">
                                <path d="M12.5797007,32.5083248 C27.6750537,32.5083248 35.9295356,20.0026 35.9295356,9.15849262 C35.9295356,8.80328725 35.9223007,8.44968456 35.9063678,8.09768054 C37.5087826,6.9392698 38.9015973,5.49365503 40,3.84803758 C38.5295933,4.5016443 36.9471785,4.94164966 35.2871611,5.14005235 C36.9815785,4.12404027 38.2823906,2.5168255 38.8959973,0.600805369 C37.3103812,1.54081477 35.5543638,2.22402282 33.684745,2.5928255 C32.1871302,0.997609396 30.0551087,-1.52599782e-14 27.6942859,-1.52599782e-14 C23.1622403,-1.52599782e-14 19.4870027,3.67523758 19.4870027,8.20568188 C19.4870027,8.84968725 19.5590027,9.4760953 19.6998054,10.0768993 C12.8789383,9.73369664 6.83087517,6.46806443 2.78363624,1.50241477 C2.07882819,2.71522685 1.6724255,4.12404027 1.6724255,5.62725503 C1.6724255,8.47448456 3.12123893,10.9881101 5.3244604,12.4585248 C3.97804832,12.4169248 2.7132349,12.0473195 1.60762282,11.4321141 C1.60641477,11.4665463 1.60641477,11.5001154 1.60641477,11.5369154 C1.60641477,15.5113544 4.4352443,18.8297879 8.19048188,19.5817946 C7.50087517,19.7697973 6.77526711,19.8705973 6.0264604,19.8705973 C5.49845503,19.8705973 4.98404966,19.8186295 4.48404564,19.7225973 C5.52885503,22.9834295 8.55848456,25.3562523 12.1505221,25.422655 C9.34169262,27.6242752 5.80325772,28.9354899 1.95762013,28.9354899 C1.29601208,28.9354899 0.642406711,28.8978577 0,28.8218872 C3.63203758,31.1499128 7.94488054,32.5083248 12.5801248,32.5083248" id="path3611"></path>
                            </g>
                        </g>
                    </g>
                </g>
            </g>
        </g>
    </g>
</svg>