<?xml version="1.0" encoding="UTF-8"?>
<svg width="32px" height="16px" viewBox="0 0 32 16" version="1.1" xmlns="http://www.w3.org/2000/svg" xmlns:xlink="http://www.w3.org/1999/xlink">
    <!-- Generator: Sketch 62 (91390) - https://sketch.com -->
    <title>users</title>
    <desc>Created with Sketch.</desc>
    <g id="Page-1" stroke="none" stroke-width="1" fill="none" fill-rule="evenodd">
        <g id="Event-Details" transform="translate(-879.000000, -272.000000)" fill="#808080" fill-rule="nonzero">
            <g id="Meta-Row" transform="translate(0.000000, 220.000000)">
                <g id="User-Group" transform="translate(879.000000, 49.000000)">
                    <g id="users" transform="translate(0.000000, 3.000000)">
                        <path d="M23.996,16 L22.6653333,16 C22.6653333,13.9306667 22.7453333,13.6333333 21.492,13.3426667 C19.5746667,12.9 17.7626667,12.4826667 17.1013333,11.0373333 C16.8613333,10.5093333 16.7,9.64 17.308,8.49466667 C18.6693333,5.92266667 19.0106667,3.71733333 18.244,2.444 C17.348,0.957333333 14.6346667,0.950666667 13.7306667,2.46666667 C12.9626667,3.75733333 13.3093333,5.95066667 14.6813333,8.48266667 C15.3013333,9.624 15.1453333,10.496 14.9053333,11.0266667 C14.252,12.4786667 12.4573333,12.8933333 10.556,13.3306667 C9.24666667,13.6333333 9.32933333,13.9106667 9.32933333,16 L8.00266667,16 L8,15.1693333 C8,13.4906667 8.13333333,12.5226667 10.1173333,12.064 C12.36,11.5453333 14.576,11.0826667 13.5106667,9.11866667 C10.356,3.29866667 12.6093333,-2.36847579e-15 15.9973333,-2.36847579e-15 C19.32,-2.36847579e-15 21.6333333,3.17733333 18.4866667,9.11866667 C17.4533333,11.0706667 19.5853333,11.5346667 21.88,12.064 C23.8666667,12.5226667 23.9986667,13.4933333 23.9986667,15.1746667 L23.996,16 L23.996,16 Z M30.4093333,13.048 C28.6906667,12.6506667 27.0906667,12.3026667 27.8653333,10.8386667 C30.2253333,6.38266667 28.492,4 25.9986667,4 C24.312,4 23.0013333,5.08933333 23.0013333,7.1 C23.0013333,8.792 23.7666667,10 24.2066667,11 L25.604,11 C25.3773333,10 23.6493333,7.584 24.5826667,6.01866667 C25.132,5.096 26.8546667,5.09466667 27.4013333,6.00266667 C27.908,6.844 27.6426667,8.41866667 26.6893333,10.2173333 C26.172,11.1946667 26.316,11.952 26.528,12.4146667 C26.9346667,13.3026667 27.8306667,13.7306667 28.844,14.0253333 C30.8533333,14.6133333 30.668,14.0813333 30.668,15.9986667 L31.9973333,15.9986667 L32,15.3813333 C32,14.1213333 31.9013333,13.392 30.4093333,13.048 L30.4093333,13.048 Z M0.00266666667,16 L1.332,16 C1.332,14.0826667 1.14666667,14.6146667 3.156,14.0266667 C4.17066667,13.732 5.06666667,13.304 5.472,12.416 C5.684,11.952 5.828,11.196 5.31066667,10.2186667 C4.35733333,8.42 4.092,6.84533333 4.59866667,6.004 C5.14533333,5.09466667 6.868,5.096 7.41733333,6.02 C8.35066667,7.58666667 6.62266667,10.0013333 6.396,11.0013333 L7.79333333,11.0013333 C8.23333333,10.0013333 8.99866768,8.79333333 8.99866768,7.10133333 C9,5.08933333 7.68933333,4 6.00266667,4 C3.50933333,4 1.776,6.38266667 4.136,10.8386667 C4.91066667,12.304 3.31066667,12.6506667 1.592,13.048 C0.0986666667,13.392 -1.18423789e-15,14.1213333 -1.18423789e-15,15.3826667 L0.00266666667,16 Z" id="Shape"></path>
                    </g>
                </g>
            </g>
        </g>
    </g>
</svg>